<?xml version="1.0" encoding="UTF-8"?>
<!-- Generator: Adobe Illustrator 16.0.0, SVG Export Plug-In . SVG Version: 6.00 Build 0)  -->
<!DOCTYPE svg PUBLIC "-//W3C//DTD SVG 1.1//EN" "http://www.w3.org/Graphics/SVG/1.1/DTD/svg11.dtd">
<svg version="1.1" id="Laag_1" xmlns="http://www.w3.org/2000/svg" xmlns:xlink="http://www.w3.org/1999/xlink" x="0px" y="0px" width="228.299px" height="146.206px" viewBox="0 0 228.299 146.206" enable-background="new 0 0 228.299 146.206" xml:space="preserve">
<path fill="#FFE600" d="M96.538,22.346l4.127-22.221H72.013l-3.994,22.289L96.538,22.346 M51.934,108.273  c-2.394,12.764-14.138,15.006-22.055,7.973c-3.414-3.488-6.834-18.114,12.275-18.149l11.71,0.073l-0.06,0.296L51.934,108.273   M82.006,99.132l137.36-0.084l4.982-26.755L87.292,71.989l8.174-43.921H66.843l-8.154,43.811H38.778  c-17.89,0-37.937,17.25-37.871,38.054c0.05,15.619,7.779,36.287,37.935,36.272C63.785,146.193,75.467,135.526,82.006,99.132"/>
<path fill="#231F20" d="M82.665,30.003c0.523,0,0.993,0.034,1.41,0.102c0.416,0.068,0.771,0.191,1.061,0.371  c0.291,0.179,0.515,0.426,0.671,0.741c0.156,0.315,0.234,0.72,0.234,1.214c0,0.291-0.044,0.574-0.131,0.851  c-0.088,0.276-0.217,0.523-0.387,0.741c-0.17,0.218-0.374,0.4-0.612,0.545c-0.238,0.146-0.513,0.238-0.823,0.276v0.029  c0.495,0.136,0.875,0.395,1.143,0.777c0.267,0.383,0.399,0.826,0.399,1.33c0,0.562-0.108,1.056-0.327,1.482  c-0.218,0.426-0.511,0.78-0.879,1.061s-0.79,0.494-1.265,0.64c-0.475,0.145-0.974,0.218-1.497,0.218h-5.524l2.166-10.378H82.665z   M81.557,38.605c0.523,0,0.952-0.14,1.287-0.421c0.334-0.281,0.501-0.697,0.501-1.249c0-0.271-0.056-0.484-0.167-0.639  c-0.111-0.155-0.255-0.273-0.429-0.356c-0.175-0.082-0.368-0.133-0.581-0.152c-0.214-0.02-0.422-0.029-0.626-0.029h-2.238  l-0.61,2.847H81.557z M82.215,34.206c0.416,0,0.777-0.114,1.083-0.342c0.305-0.228,0.458-0.569,0.458-1.024  c0-0.407-0.109-0.686-0.327-0.836c-0.219-0.15-0.512-0.225-0.88-0.225h-2.413l-0.509,2.427H82.215z"/>
<path fill="#231F20" d="M87.602,33.635c0.262-0.756,0.638-1.422,1.127-1.999s1.086-1.035,1.788-1.374  c0.703-0.339,1.49-0.509,2.363-0.509c0.698,0,1.333,0.094,1.905,0.283c0.571,0.189,1.056,0.473,1.453,0.851s0.705,0.843,0.924,1.396  c0.218,0.553,0.327,1.192,0.327,1.919c0,0.853-0.126,1.667-0.378,2.442c-0.253,0.775-0.618,1.459-1.098,2.05  c-0.48,0.591-1.071,1.059-1.774,1.403c-0.703,0.344-1.51,0.516-2.421,0.516c-1.474,0-2.609-0.393-3.409-1.177  c-0.8-0.785-1.2-1.919-1.2-3.402C87.209,35.19,87.34,34.391,87.602,33.635z M89.632,37.054c0.092,0.32,0.232,0.604,0.421,0.851  c0.189,0.248,0.432,0.444,0.727,0.589c0.296,0.146,0.652,0.218,1.068,0.218c0.563,0,1.052-0.133,1.468-0.4  c0.417-0.267,0.766-0.611,1.047-1.033c0.28-0.422,0.491-0.89,0.632-1.404c0.141-0.514,0.211-1.018,0.211-1.513  c0-0.368-0.042-0.715-0.124-1.04s-0.216-0.608-0.399-0.851c-0.185-0.242-0.422-0.436-0.712-0.582  c-0.291-0.146-0.649-0.218-1.075-0.218c-0.582,0-1.088,0.133-1.52,0.4c-0.431,0.267-0.784,0.611-1.061,1.033  c-0.275,0.422-0.481,0.892-0.617,1.411c-0.136,0.519-0.203,1.025-0.203,1.52C89.495,36.395,89.541,36.734,89.632,37.054z"/>
<path fill="#231F20" d="M107.035,38.011c-0.237,0.572-0.55,1.049-0.938,1.432s-0.862,0.673-1.425,0.872  c-0.562,0.198-1.245,0.298-2.049,0.298c-0.505,0-1.001-0.053-1.49-0.16c-0.49-0.106-0.926-0.279-1.31-0.516  c-0.383-0.237-0.693-0.552-0.931-0.945c-0.238-0.392-0.356-0.875-0.356-1.446c0-0.262,0.024-0.521,0.072-0.778  c0.049-0.257,0.097-0.511,0.146-0.763l1.266-6.002h2.283l-1.265,6.005c-0.02,0.087-0.041,0.187-0.065,0.298  c-0.024,0.111-0.048,0.23-0.072,0.356s-0.044,0.245-0.059,0.356c-0.015,0.111-0.021,0.21-0.021,0.298  c0,0.126,0.026,0.271,0.08,0.436c0.053,0.165,0.152,0.317,0.298,0.458s0.344,0.259,0.596,0.356c0.252,0.097,0.577,0.146,0.974,0.146  c0.466,0,0.844-0.061,1.134-0.182c0.291-0.122,0.526-0.291,0.705-0.509c0.18-0.218,0.32-0.487,0.422-0.807  c0.102-0.319,0.196-0.673,0.284-1.061l1.293-6.15h2.282l-1.265,6.032C107.468,36.781,107.272,37.439,107.035,38.011z"/>
<path fill="#231F20" d="M116.342,40.381l-0.262-7.413h-0.029l-3.227,7.413h-2.297l-0.713-10.378h2.282l0.146,7.602h0.029  l3.285-7.602h2.181L118,37.576h0.028l3.169-7.573h2.282l-4.869,10.378H116.342z"/>
<path fill="#231F20" d="M128.959,30.003c0.523,0,0.994,0.034,1.41,0.102c0.417,0.068,0.771,0.191,1.062,0.371  s0.515,0.426,0.67,0.741c0.156,0.315,0.234,0.72,0.234,1.214c0,0.291-0.044,0.574-0.131,0.851c-0.088,0.276-0.216,0.523-0.387,0.741  c-0.17,0.218-0.374,0.4-0.611,0.545c-0.238,0.146-0.513,0.238-0.823,0.276v0.029c0.494,0.136,0.875,0.395,1.142,0.777  s0.4,0.826,0.4,1.33c0,0.562-0.109,1.056-0.327,1.482s-0.511,0.78-0.879,1.061c-0.369,0.281-0.79,0.494-1.266,0.64  c-0.475,0.145-0.974,0.218-1.496,0.218h-5.524l2.166-10.378H128.959z M127.853,38.605c0.523,0,0.952-0.14,1.286-0.421  s0.502-0.697,0.502-1.249c0-0.271-0.056-0.484-0.168-0.639c-0.111-0.155-0.254-0.273-0.429-0.356  c-0.174-0.082-0.368-0.133-0.581-0.152s-0.422-0.029-0.625-0.029H125.6l-0.61,2.847H127.853z M128.51,34.206  c0.417,0,0.778-0.114,1.083-0.342c0.306-0.228,0.458-0.569,0.458-1.024c0-0.407-0.109-0.686-0.327-0.836  c-0.218-0.15-0.511-0.225-0.879-0.225h-2.413l-0.509,2.427H128.51z"/>
<path fill="#231F20" d="M143.014,30.003l-0.393,1.918h-5.64l-0.465,2.222h5.218l-0.378,1.776h-5.218l-0.538,2.543h5.728  l-0.407,1.918h-7.995l2.166-10.378H143.014z"/>
<path fill="#231F20" d="M148.549,30.003c1.463,0,2.563,0.352,3.3,1.054c0.736,0.703,1.104,1.698,1.104,2.987  c0,0.901-0.126,1.739-0.378,2.514s-0.628,1.446-1.126,2.013c-0.5,0.567-1.124,1.01-1.876,1.33c-0.751,0.32-1.625,0.479-2.623,0.479  h-4.332l2.181-10.378H148.549z M147.05,38.462c0.581,0,1.097-0.106,1.548-0.32c0.45-0.213,0.828-0.504,1.134-0.872  c0.305-0.368,0.537-0.794,0.697-1.279c0.16-0.484,0.24-1.002,0.24-1.555c0-0.378-0.041-0.719-0.124-1.024  c-0.082-0.305-0.215-0.569-0.399-0.792c-0.185-0.223-0.419-0.395-0.705-0.516s-0.632-0.182-1.039-0.182h-1.716l-1.396,6.541H147.05z  "/>
<path fill="#231F20" d="M160.513,30.003c0.465-0.009,0.889,0.032,1.271,0.124c0.383,0.092,0.71,0.247,0.981,0.465  s0.479,0.501,0.625,0.85c0.145,0.349,0.218,0.775,0.218,1.279c0,0.349-0.059,0.683-0.175,1.002c-0.116,0.319-0.281,0.603-0.494,0.85  c-0.214,0.247-0.465,0.453-0.756,0.617c-0.291,0.165-0.611,0.271-0.96,0.32v0.029c0.426,0.136,0.71,0.371,0.855,0.706  c0.145,0.334,0.218,0.71,0.218,1.127c0,0.232-0.013,0.511-0.036,0.836c-0.023,0.325-0.035,0.647-0.035,0.967  c0,0.233,0.01,0.453,0.029,0.662s0.059,0.391,0.116,0.545h-2.222c-0.029-0.126-0.053-0.245-0.072-0.356  c-0.02-0.112-0.029-0.226-0.029-0.342c0-0.349,0.02-0.701,0.058-1.055c0.039-0.354,0.059-0.706,0.059-1.055  c0-0.252-0.036-0.458-0.109-0.619c-0.072-0.16-0.175-0.288-0.305-0.385c-0.131-0.097-0.289-0.163-0.473-0.197  c-0.185-0.034-0.388-0.051-0.611-0.051h-2.15l-0.858,4.06h-2.268l2.166-10.378H160.513z M158.97,34.697  c0.31,0,0.604-0.031,0.886-0.095c0.281-0.063,0.531-0.159,0.749-0.29s0.393-0.3,0.523-0.508s0.196-0.458,0.196-0.748  c0-0.28-0.047-0.505-0.139-0.675s-0.215-0.298-0.37-0.385s-0.335-0.145-0.538-0.174c-0.204-0.029-0.417-0.043-0.64-0.043h-2.166  l-0.61,2.918H158.97z"/>
<path fill="#231F20" d="M168.364,30.003l-2.194,10.378h-2.282l2.181-10.378H168.364z"/>
<path fill="#231F20" d="M173.682,39.792c-0.586,0.547-1.441,0.821-2.565,0.821c-0.407,0-0.8-0.043-1.178-0.13  c-0.378-0.087-0.713-0.23-1.004-0.428s-0.524-0.457-0.699-0.776c-0.174-0.319-0.262-0.706-0.262-1.162  c0-0.281,0.02-0.55,0.059-0.807c0.038-0.257,0.082-0.521,0.131-0.792h2.066c-0.048,0.223-0.095,0.441-0.138,0.654  c-0.044,0.213-0.065,0.402-0.065,0.567c0,0.32,0.113,0.562,0.342,0.727c0.228,0.165,0.486,0.247,0.777,0.247  s0.525-0.049,0.705-0.146c0.179-0.097,0.324-0.226,0.436-0.385c0.111-0.16,0.196-0.349,0.255-0.567  c0.059-0.218,0.116-0.443,0.175-0.676l1.438-6.936h2.297l-1.541,7.427C174.678,38.457,174.269,39.245,173.682,39.792z"/>
<path fill="#231F20" d="M185.836,30.003l-0.422,1.918h-5.088l-0.509,2.4h4.448l-0.378,1.776h-4.434l-0.916,4.283h-2.268  l2.181-10.378H185.836z"/>
<path fill="#231F20" d="M82.305,65.023c-1.061,0.99-2.605,1.485-4.637,1.485c-0.736,0-1.446-0.079-2.13-0.236  c-0.684-0.158-1.288-0.417-1.815-0.776c-0.526-0.359-0.947-0.828-1.264-1.406c-0.315-0.579-0.474-1.28-0.474-2.103  c0-0.508,0.035-0.994,0.105-1.458c0.07-0.464,0.149-0.941,0.237-1.432h3.737c-0.088,0.403-0.171,0.797-0.25,1.182  c-0.078,0.385-0.118,0.727-0.118,1.024c0,0.578,0.206,1.016,0.617,1.314c0.412,0.298,0.88,0.446,1.406,0.446  c0.525,0,0.95-0.087,1.273-0.263c0.324-0.175,0.587-0.407,0.788-0.696c0.202-0.289,0.354-0.631,0.46-1.025s0.21-0.801,0.315-1.222  l2.601-12.535h4.151l-2.785,13.43C84.104,62.61,83.365,64.034,82.305,65.023z"/>
<path fill="#231F20" d="M88.748,53.894c0.473-1.367,1.151-2.571,2.036-3.613c0.885-1.042,1.962-1.871,3.232-2.484  c1.27-0.613,2.693-0.92,4.271-0.92c1.261,0,2.408,0.171,3.442,0.513c1.033,0.342,1.909,0.854,2.627,1.538  c0.719,0.683,1.274,1.524,1.669,2.523s0.592,2.155,0.592,3.469c0,1.542-0.229,3.014-0.684,4.415  c-0.455,1.402-1.116,2.637-1.984,3.706c-0.867,1.069-1.936,1.914-3.205,2.536c-1.271,0.622-2.729,0.933-4.376,0.933  c-2.662,0-4.717-0.709-6.162-2.128c-1.445-1.419-2.168-3.469-2.168-6.15C88.038,56.706,88.275,55.261,88.748,53.894z M92.411,60.067  c0.166,0.578,0.42,1.091,0.762,1.538c0.343,0.447,0.78,0.802,1.315,1.065c0.534,0.263,1.179,0.394,1.933,0.394  c1.017,0,1.901-0.241,2.655-0.723s1.385-1.104,1.894-1.867c0.508-0.762,0.889-1.608,1.144-2.537c0.254-0.929,0.381-1.84,0.381-2.734  c0-0.666-0.074-1.292-0.224-1.88c-0.148-0.587-0.39-1.1-0.723-1.538c-0.333-0.438-0.763-0.789-1.289-1.051  c-0.525-0.263-1.174-0.395-1.945-0.395c-1.052,0-1.968,0.241-2.748,0.723c-0.779,0.482-1.419,1.104-1.919,1.867  c-0.5,0.762-0.872,1.612-1.117,2.55c-0.245,0.938-0.368,1.854-0.368,2.748C92.161,58.875,92.244,59.489,92.411,60.067z"/>
<path fill="#231F20" d="M115.629,47.323l5.097,13.345h0.053l2.68-13.345h3.783l-3.967,18.757h-4.125l-5.148-13.161h-0.053  l-2.68,13.161h-3.836l3.941-18.757H115.629z"/>
<path fill="#231F20" d="M141.01,64.169c-0.613,0.841-1.332,1.441-2.156,1.8c-0.824,0.359-1.683,0.539-2.576,0.539  c-2.665,0-4.72-0.709-6.166-2.128c-1.446-1.419-2.169-3.469-2.169-6.15c0-1.524,0.236-2.969,0.71-4.336  c0.473-1.367,1.152-2.571,2.037-3.613c0.885-1.042,1.963-1.871,3.234-2.484c1.271-0.613,2.695-0.92,4.272-0.92  c1.104,0,2.139,0.131,3.103,0.394s1.806,0.665,2.524,1.207s1.288,1.229,1.709,2.061c0.421,0.831,0.631,1.825,0.631,2.98h-4.122  c-0.053-1.156-0.412-1.975-1.079-2.456c-0.667-0.482-1.58-0.723-2.737-0.723c-1.054,0-1.971,0.241-2.751,0.723  c-0.781,0.482-1.422,1.104-1.922,1.867c-0.5,0.762-0.873,1.612-1.119,2.55c-0.245,0.938-0.368,1.854-0.368,2.748  c0,0.648,0.083,1.262,0.25,1.84s0.421,1.091,0.763,1.538c0.342,0.447,0.78,0.802,1.315,1.065s1.18,0.394,1.934,0.394  c0.789,0,1.47-0.101,2.039-0.303c0.57-0.201,1.062-0.478,1.474-0.828c0.412-0.351,0.754-0.776,1.026-1.276  c0.271-0.5,0.495-1.048,0.671-1.644h-4.339l0.657-3.069h7.964l-2.154,10.145h-2.602v-1.918H141.01z"/>
<path fill="#231F20" d="M165.071,47.323l-0.71,3.462h-10.192l-0.841,4.016h9.431l-0.683,3.212h-9.432l-0.972,4.604h10.351  l-0.735,3.462h-14.449l3.915-18.757H165.071z"/>
<path fill="#231F20" d="M177.242,47.323c0.842-0.017,1.607,0.057,2.3,0.223c0.692,0.167,1.283,0.446,1.774,0.84  c0.49,0.394,0.867,0.906,1.13,1.536s0.394,1.4,0.394,2.31c0,0.63-0.105,1.234-0.315,1.812s-0.508,1.089-0.894,1.536  s-0.842,0.818-1.368,1.116c-0.525,0.297-1.104,0.49-1.735,0.578v0.053c0.769,0.245,1.284,0.67,1.546,1.275  c0.263,0.604,0.394,1.284,0.394,2.038c0,0.421-0.021,0.924-0.063,1.512c-0.042,0.587-0.063,1.17-0.063,1.748  c0,0.421,0.018,0.819,0.053,1.196c0.036,0.377,0.106,0.706,0.214,0.986h-4.026c-0.053-0.228-0.097-0.442-0.132-0.644  c-0.035-0.201-0.053-0.407-0.053-0.618c0-0.631,0.036-1.266,0.107-1.906c0.071-0.64,0.106-1.275,0.106-1.906  c0-0.456-0.065-0.828-0.196-1.117c-0.132-0.289-0.315-0.521-0.552-0.697c-0.236-0.175-0.521-0.293-0.854-0.354  c-0.333-0.062-0.701-0.092-1.104-0.092h-3.889l-1.55,7.335h-4.098l3.914-18.757H177.242z M174.461,55.8  c0.561,0,1.095-0.057,1.603-0.17s0.959-0.288,1.353-0.524c0.395-0.236,0.709-0.542,0.946-0.917c0.236-0.375,0.354-0.825,0.354-1.349  c0-0.506-0.084-0.913-0.25-1.218s-0.39-0.537-0.67-0.694s-0.604-0.262-0.972-0.314c-0.368-0.052-0.753-0.079-1.156-0.079h-3.914  l-1.104,5.265H174.461z"/>
<path fill="#231F20" d="M191.419,47.323l-3.967,18.757h-4.125l3.94-18.757H191.419z"/>
<path fill="#231F20" d="M207.535,61.804c-0.43,1.034-0.994,1.896-1.694,2.589c-0.7,0.692-1.559,1.217-2.574,1.577  c-1.016,0.359-2.251,0.539-3.704,0.539c-0.911,0-1.809-0.096-2.692-0.289c-0.885-0.193-1.673-0.504-2.364-0.933  c-0.691-0.43-1.252-0.999-1.681-1.708s-0.643-1.581-0.643-2.615c0-0.473,0.043-0.942,0.131-1.406s0.175-0.924,0.263-1.38  l2.284-10.854h4.124l-2.285,10.853c-0.035,0.158-0.075,0.337-0.119,0.539c-0.044,0.202-0.087,0.417-0.131,0.644  c-0.044,0.228-0.079,0.442-0.105,0.644c-0.026,0.201-0.039,0.381-0.039,0.539c0,0.228,0.048,0.49,0.145,0.788  s0.275,0.574,0.538,0.828c0.263,0.254,0.622,0.469,1.077,0.644c0.455,0.175,1.042,0.263,1.761,0.263c0.84,0,1.523-0.109,2.049-0.328  c0.525-0.219,0.95-0.525,1.274-0.92c0.323-0.395,0.577-0.88,0.762-1.458c0.184-0.578,0.354-1.217,0.512-1.918l2.338-11.116h4.125  l-2.285,10.907C208.319,59.579,207.963,60.771,207.535,61.804z"/>
<path fill="#231F20" d="M214.936,61.515c0.193,0.447,0.473,0.801,0.841,1.063s0.806,0.451,1.314,0.565  c0.508,0.114,1.06,0.171,1.655,0.171c0.42,0,0.841-0.053,1.261-0.158c0.421-0.105,0.802-0.262,1.144-0.473  c0.342-0.21,0.622-0.481,0.841-0.814c0.219-0.332,0.329-0.735,0.329-1.208c0-0.455-0.141-0.827-0.42-1.116  c-0.28-0.289-0.644-0.538-1.09-0.748s-0.954-0.394-1.522-0.551c-0.569-0.158-1.143-0.324-1.72-0.499  c-0.595-0.175-1.173-0.385-1.732-0.63c-0.561-0.245-1.063-0.561-1.51-0.945c-0.446-0.385-0.805-0.858-1.076-1.418  s-0.407-1.243-0.407-2.048c0-1.05,0.219-1.943,0.656-2.678c0.438-0.735,1.006-1.334,1.705-1.799c0.7-0.463,1.491-0.805,2.375-1.023  c0.883-0.219,1.779-0.329,2.688-0.329c0.962,0,1.867,0.11,2.716,0.33c0.848,0.219,1.591,0.575,2.229,1.066  c0.639,0.491,1.146,1.119,1.522,1.881c0.376,0.763,0.563,1.687,0.563,2.772h-3.908c0.018-0.525-0.057-0.967-0.223-1.327  c-0.167-0.359-0.402-0.652-0.709-0.88s-0.669-0.39-1.089-0.486c-0.42-0.097-0.866-0.145-1.338-0.145  c-0.386,0-0.774,0.04-1.168,0.118c-0.394,0.079-0.748,0.21-1.063,0.394c-0.314,0.184-0.568,0.425-0.761,0.722  c-0.192,0.298-0.288,0.665-0.288,1.102c0,0.455,0.17,0.835,0.512,1.142c0.341,0.306,0.752,0.56,1.233,0.761s0.976,0.358,1.483,0.472  s0.919,0.206,1.234,0.276c0.734,0.192,1.408,0.415,2.021,0.669s1.143,0.582,1.588,0.984c0.446,0.402,0.792,0.892,1.037,1.469  s0.368,1.286,0.368,2.125c0,1.12-0.232,2.073-0.696,2.86s-1.059,1.426-1.785,1.916c-0.727,0.49-1.544,0.844-2.454,1.063  c-0.91,0.218-1.813,0.328-2.705,0.328c-2.625,0-4.581-0.534-5.867-1.602c-1.287-1.067-1.93-2.749-1.93-5.043h3.908  C214.665,60.512,214.744,61.068,214.936,61.515z"/>
</svg>