<?xml version="1.0" encoding="UTF-8"?>
<!DOCTYPE svg PUBLIC "-//W3C//DTD SVG 1.1//EN" "http://www.w3.org/Graphics/SVG/1.1/DTD/svg11.dtd">
<!-- Creator: CorelDRAW 2017 -->
<svg xmlns="http://www.w3.org/2000/svg" xml:space="preserve" width="4.76704in" height="1.18335in" version="1.1" style="shape-rendering:geometricPrecision; text-rendering:geometricPrecision; image-rendering:optimizeQuality; fill-rule:evenodd; clip-rule:evenodd"
viewBox="0 0 4406.39 1093.82"
 xmlns:xlink="http://www.w3.org/1999/xlink">
 <defs>
  <style type="text/css">
   <![CDATA[
    .fil0 {fill:#FFE61C;fill-rule:nonzero}
   ]]>
  </style>
 </defs>
 <g id="Layer_x0020_1">
  <metadata id="CorelCorpID_0Corel-Layer"/>
  <path class="fil0" d="M2688.47 1028.46c25.98,38.67 63.49,59.63 105.99,59.63 22.54,0 45.24,-6.35 63.86,-17.91 45.51,-28.33 75.19,-91.99 32.75,-164.98l-199.78 -329.37 167.9 -166.86c60.56,-60.61 47.89,-128.41 10.5,-165.83 -20.64,-20.67 -49.25,-32.54 -78.47,-32.54 -30.63,0 -59.5,12.77 -83.64,36.93l-279.42 278.77 0 -404.36c0,-80.46 -59.45,-121.94 -118.07,-121.94 -58.77,0 -118.33,41.88 -118.33,121.94l0 843.17c0,80.59 59.44,122.79 118.2,122.79 58.75,0 118.2,-42.2 118.2,-122.79l0 -134.31 87.06 -85.08 172.5 281.59 0.75 1.16z"/>
  <path class="fil0" d="M3141.89 210.67c-59.62,0 -120.02,44.72 -120.02,130.29l0 628.22c0,78.1 58.97,118.91 117.18,118.91 58.26,0 117.23,-40.82 117.23,-118.91l0 -357.91c0,-133.02 85.56,-148.22 126.74,-155.57 82.36,-14.66 133.2,-59.06 139.41,-121.76 4.37,-55.7 -21.22,-97.09 -74.03,-119.67 -13.87,-6.1 -30.75,-9.31 -48.87,-9.31 -53.44,0 -123.41,29.22 -147.96,83.37l-6.28 13.91 -2.4 -15.04c-8.08,-50.28 -56.94,-76.53 -101,-76.53z"/>
  <path class="fil0" d="M3971.18 1093.82c-252.14,0 -435.15,-182.88 -435.15,-434.82 0,-120.53 42.53,-233.3 119.63,-317.53 80.65,-88.07 192.7,-136.58 315.52,-136.58 123.77,0 235.93,46.71 315.9,131.51 76.92,81.6 119.32,192.75 119.32,312.96 0,120.19 -42.39,231.34 -119.32,313.03 -79.97,84.73 -192.14,131.42 -315.9,131.42zm0 -676.98c-107.56,0 -195.06,107.41 -195.06,239.39 0,128.57 83.82,225.57 195.06,225.57 111.23,0 195.12,-97 195.12,-225.57 0,-131.98 -87.56,-239.39 -195.12,-239.39z"/>
  <path class="fil0" d="M829.23 433.13c57.91,0 120.19,39.42 120.19,125.99l0 403.31c0,82.55 59.29,125.71 117.83,125.71 58.54,0 117.78,-43.16 117.78,-125.71l0 -467.07c0,-187.25 -122.37,-284.68 -274.77,-284.68 -120.34,0 -217.5,47.77 -237.98,88.27l-4.48 9.16 -4.46 -10.01c-23.68,-45.16 -112.72,-87.46 -218.84,-87.46 -94.28,0 -183.51,24.6 -210.83,72.86l-6.46 10.88 -2.47 -13.39c-8.5,-45.83 -59.35,-70.31 -102.91,-70.31 -60.52,0 -121.82,41.06 -121.82,120.07l0 631.68c0,82.55 59.32,125.71 117.92,125.71 58.58,0 117.88,-43.16 117.88,-125.71l0 -403.31c0,-87.25 61.93,-127.03 119.47,-127.03 57.53,0 119.46,39.78 119.46,127.03l0 403.31c0,82.55 59.34,125.71 117.91,125.71 58.56,0 117.83,-43.16 117.83,-125.71l0 -403.31c0,-87.04 59.65,-125.99 118.76,-125.99z"/>
  <path class="fil0" d="M1805.31 753.93c0,112.69 -70.07,161.97 -155.57,161.97 -68.42,0 -126.35,-41.63 -126.64,-90.96 -0.28,-65.88 52.42,-80.71 139.33,-97.3 86.11,-16.47 128.09,-44.25 135.63,-49.69l7.24 -5.22 0 81.19zm-97.43 -543.26c-125.48,0 -251.43,44.27 -306.28,107.54 -24.32,28.02 -34.24,58.63 -29.6,91 7.81,54.23 33.21,87.11 71.6,92.51 6.12,0.9 12.35,1.29 18.48,1.29 49.25,0 85.11,-27.29 102.11,-43.63 40.79,-38.51 72.97,-68.88 151.05,-68.88 64.34,0 98.35,26.52 98.35,76.75 0,64.8 -47.79,70.24 -120.04,78.48 -197.23,22.33 -387.58,58.92 -387.58,266.52 0,134.06 79.56,230.5 218.31,264.53 29.84,7.35 63.39,11.22 97.18,11.22 88.03,0 162.36,-25.72 189.38,-65.48l5.35 -7.9 2.81 9.11c9.62,31.4 21.2,40.34 35.28,48.77 17.01,10.23 37.18,15.58 58.36,15.58 62.82,0 121.8,-47.37 121.8,-123.45l0 -534.05c0,-137.68 -122.1,-219.92 -326.55,-219.92z"/>
 </g>
</svg>
