<svg version="1.1" class="logo" xmlns="http://www.w3.org/2000/svg" xmlns:xlink="http://www.w3.org/1999/xlink" x="0px" y="0px" viewBox="0 0 5318.666 1295.885" enable-background="new 0 0 5318.666 1295.885" xml:space="preserve">
<g class="shape">
	<g>
		<path fill="#0091D3" d="M24.213,968.043c-32.792,32.783-32.792,85.947,0,118.764c16.412,16.393,37.902,24.594,59.38,24.594
			c21.51,0,42.989-8.201,59.382-24.594l320.103-320.1L344.31,647.93L24.213,968.043z"></path>
		<path fill="#812B29" d="M1086.428,143.357c32.797-32.783,32.797-85.96,0-118.772c-32.81-32.783-85.968-32.783-118.765,0
			L647.551,344.694l118.764,118.772L1086.428,143.357"></path>
		<path fill="#E30613" d="M967.664,1271.271c16.379,16.411,37.882,24.613,59.371,24.613c21.491,0,42.981-8.202,59.398-24.613
			c32.791-32.791,32.791-85.967,0-118.758L766.315,832.401L647.551,951.158L967.664,1271.271z"></path>
		<path fill="#0E4A7D" d="M463.077,529.161L142.975,209.059c-32.782-32.787-85.967-32.787-118.762,0
			c-32.793,32.801-32.793,85.976,0,118.771l320.097,320.1l118.768,118.777L581.861,647.93L463.077,529.161z"></path>
	</g>
	<path fill="#0091D3" d="M1270.886,209.059c-32.803-32.786-85.986-32.786-118.776,0L832.003,529.161v237.546L950.792,647.93
		l320.094-320.1C1303.677,295.035,1303.677,241.86,1270.886,209.059"></path>
	<path fill="#812B29" d="M766.315,832.401L647.551,713.631L528.781,832.395v-0.006l-320.105,320.112
		c-32.814,32.784-32.814,85.974,0,118.758c16.414,16.41,37.894,24.608,59.401,24.608c21.498,0,42.971-8.197,59.36-24.608
		l320.093-320.1l0.019,0.006L766.315,832.401z"></path>
	<g>
		<path fill="#0E4A7D" d="M950.792,647.93L832.003,766.706l320.106,320.101c16.398,16.392,37.895,24.595,59.385,24.595
			c21.51,0,42.98-8.203,59.392-24.595c32.79-32.815,32.79-85.98,0-118.764L950.792,647.93z"></path>
		<path fill="#E30613" d="M766.327,463.466H528.782L208.677,143.357c-32.814-32.783-32.814-85.96,0-118.772
			C225.078,8.194,246.569-0.002,268.06-0.002c21.49,0,42.98,8.196,59.379,24.587l320.112,320.109l118.763,118.772H766.327"></path>
	</g>
	<polygon fill="#812B29" points="766.315,463.466 647.551,344.694 766.32,463.461 	"></polygon>
</g>
<g class="slopen">
	<path fill="#E30613" d="M1472.985,1223.312c3.893,1.817,20.146,12.36,49.227,12.36c17.39,0,28.62-5.269,28.62-14.65
		c0-11.452-10.998-16.02-31.832-20.614c-23.117-5.942-53.353-16.479-53.353-49.914c0-33.895,28.172-42.355,56.564-42.355
		c28.394,0,46.703,8.02,58.143,14.67l-11.894,26.09c-8.714-5.502-24.279-12.133-46.249-12.133c-13.515,0-25.642,3.438-25.642,13.729
		c0,13.062,18.544,15.8,28.374,19.012c38.008,10.309,56.786,23.124,56.786,51.517c0,37.32-34.797,43.283-59.519,43.283
		c-25.875,0-46.481-6.663-61.133-14.897L1472.985,1223.312z"></path>
	<polygon fill="#E30613" points="1613.788,1111.817 1644.472,1111.817 1644.472,1232.014 1711.087,1232.014 1711.087,1260.633
		1613.788,1260.633 	"></polygon>
	<path fill="#E30613" d="M1734.906,1181.424c0-52.666,26.328-73.285,62.488-73.285c36.186,0,62.515,20.619,62.515,73.285v9.604
		c0,52.652-26.329,73.277-62.515,73.277c-36.16,0-62.488-20.625-62.488-73.277V1181.424z M1828.999,1181.424
		c0-33.888-12.587-44.659-31.604-44.659c-18.992,0-31.585,10.771-31.585,44.659v9.604c0,33.888,12.593,44.646,31.585,44.646
		c19.018,0,31.604-10.758,31.604-44.646V1181.424z"></path>
	<path fill="#E30613" d="M1954.242,1111.817c41.201,0,57.461,19.232,57.461,47.617c0,28.388-16.26,47.392-57.461,47.392h-27.483
		v53.807h-30.683v-148.816H1954.242z M1926.759,1140.443v37.769h27.483c20.129,0,26.771-6.423,26.771-18.778
		c0-12.354-6.643-18.991-26.771-18.991H1926.759z"></path>
	<polygon fill="#E30613" points="2074.42,1232.014 2154.797,1232.014 2154.797,1260.634 2043.756,1260.634 2043.756,1111.817
		2154.797,1111.817 2154.797,1140.443 2074.42,1140.443 2074.42,1167.909 2145.629,1167.909 2145.629,1196.51 2074.42,1196.51 	"></polygon>
	<polygon fill="#E30613" points="2186.843,1111.817 2220.511,1111.817 2271.787,1205.002 2271.787,1111.817 2302.471,1111.817
		2302.471,1260.633 2268.815,1260.633 2217.525,1167.694 2217.525,1260.633 2186.843,1260.633 	"></polygon>
</g>
<g class="boren">
	<path fill="#0E4A7D" d="M2596.646,1111.817c39.604,0,55.183,18.07,55.183,41.901c0,11.9-5.275,22.657-17.402,29.756
		c15.319,7.553,21.965,19.686,21.965,33.661c0,25.421-16.248,43.498-57.475,43.498H2536.2v-148.816H2596.646z M2566.87,1140.444
		v30.891h29.775c18.321,0,24.487-7.332,24.487-15.345c0-9.369-6.166-15.546-24.487-15.546H2566.87z M2566.87,1197.671v34.343h32.046
		c20.153,0,26.797-6.656,26.797-17.181c0-9.616-6.644-17.162-26.797-17.162H2566.87z"></path>
	<path fill="#0E4A7D" d="M2685.274,1181.424c0-52.666,26.336-73.285,62.509-73.285c36.178,0,62.502,20.619,62.502,73.285v9.604
		c0,52.652-26.324,73.277-62.502,73.277c-36.173,0-62.509-20.625-62.509-73.277V1181.424z M2779.368,1181.424
		c0-33.888-12.587-44.659-31.585-44.659c-19.005,0-31.599,10.771-31.599,44.659v9.604c0,33.888,12.594,44.646,31.599,44.646
		c18.998,0,31.585-10.758,31.585-44.646V1181.424z"></path>
	<path fill="#0E4A7D" d="M2900.707,1202.238h-23.561v58.396h-30.689v-148.816h58.148c41.214,0,57.46,18.998,57.46,45.321
		c0,18.316-8.687,33.207-29.528,40.532l41.674,62.963h-35.257L2900.707,1202.238z M2877.146,1140.443v33.182h27.459
		c20.146,0,26.784-7.554,26.784-16.487c0-10.058-6.638-16.695-26.784-16.695H2877.146z"></path>
	<polygon fill="#0E4A7D" points="3030.758,1232.014 3111.122,1232.014 3111.122,1260.634 3000.081,1260.634 3000.081,1111.817
		3111.122,1111.817 3111.122,1140.443 3030.758,1140.443 3030.758,1167.909 3101.955,1167.909 3101.955,1196.51 3030.758,1196.51
		"></polygon>
	<polygon fill="#0E4A7D" points="3143.168,1111.817 3176.823,1111.817 3228.119,1205.002 3228.119,1111.817 3258.796,1111.817
		3258.796,1260.633 3225.147,1260.633 3173.851,1167.694 3173.851,1260.633 3143.168,1260.633 	"></polygon>
</g>
<g class="bouwen">
	<path fill="#0091D3" d="M3551.955,1111.817c39.61,0,55.182,18.07,55.182,41.901c0,11.9-5.275,22.657-17.402,29.756
		c15.333,7.553,21.971,19.686,21.971,33.661c0,25.421-16.254,43.498-57.474,43.498h-62.723v-148.816H3551.955z M3522.186,1140.444
		v30.891h29.769c18.303,0,24.481-7.332,24.481-15.345c0-9.369-6.178-15.546-24.481-15.546H3522.186z M3522.186,1197.671v34.343
		h32.046c20.165,0,26.79-6.656,26.79-17.181c0-9.616-6.625-17.162-26.79-17.162H3522.186z"></path>
	<path fill="#0091D3" d="M3641.606,1181.424c0-52.666,26.335-73.285,62.501-73.285c36.173,0,62.489,20.619,62.489,73.285v9.604
		c0,52.652-26.316,73.277-62.489,73.277c-36.166,0-62.501-20.625-62.501-73.277V1181.424z M3735.7,1181.424
		c0-33.888-12.593-44.659-31.592-44.659c-19.004,0-31.585,10.771-31.585,44.659v9.604c0,33.888,12.581,44.646,31.585,44.646
		c18.999,0,31.592-10.758,31.592-44.646V1181.424z"></path>
	<path fill="#0091D3" d="M3800.726,1111.817h30.677v79.21c0,33.888,11.679,44.646,29.528,44.646
		c17.635,0,29.308-10.759,29.308-44.646v-79.21h30.683v79.21c0,52.652-25.421,73.278-59.991,73.278
		c-34.79,0-60.205-20.626-60.205-73.278V1111.817z"></path>
	<polygon fill="#0091D3" points="4096.761,1209.805 4126.302,1111.817 4156.973,1111.817 4112.106,1260.633 4081.41,1260.633
		4051.882,1162.634 4022.347,1260.633 3991.67,1260.633 3946.791,1111.817 3977.473,1111.817 4007.014,1209.805 4036.55,1111.817
		4067.232,1111.817 	"></polygon>
	<polygon fill="#0091D3" points="4215.582,1232.014 4295.939,1232.014 4295.939,1260.634 4184.905,1260.634 4184.905,1111.817
		4295.939,1111.817 4295.939,1140.443 4215.582,1140.443 4215.582,1167.909 4286.778,1167.909 4286.778,1196.51 4215.582,1196.51
		"></polygon>
	<polygon fill="#0091D3" points="4327.998,1111.817 4361.665,1111.817 4412.943,1205.002 4412.943,1111.817 4443.607,1111.817
		4443.607,1260.633 4409.952,1260.633 4358.682,1167.694 4358.682,1260.633 4327.998,1260.633 	"></polygon>
</g>
<g class="infra">
	<rect x="4672.112" y="1111.817" fill="#812B29" width="30.69" height="148.816"></rect>
	<polygon fill="#812B29" points="4743.088,1111.817 4776.749,1111.817 4828.039,1205.002 4828.039,1111.817 4858.716,1111.817
		4858.716,1260.633 4825.048,1260.633 4773.765,1167.694 4773.765,1260.633 4743.088,1260.633 	"></polygon>
	<polygon fill="#812B29" points="4929.685,1260.634 4899.002,1260.634 4899.002,1111.817 5010.056,1111.817 5010.056,1140.443
		4929.685,1140.443 4929.685,1167.909 5000.901,1167.909 5000.901,1196.51 4929.685,1196.51 	"></polygon>
	<path fill="#812B29" d="M5094.312,1202.238h-23.591v58.396h-30.689v-148.816h58.167c41.201,0,57.46,18.998,57.46,45.321
		c0,18.316-8.694,33.207-29.534,40.532l41.668,62.963h-35.258L5094.312,1202.238z M5070.721,1140.443v33.182h27.478
		c20.134,0,26.791-7.554,26.791-16.487c0-10.058-6.657-16.695-26.791-16.695H5070.721z"></path>
	<path fill="#812B29" d="M5233.267,1111.816h31.377l54.022,148.817h-31.358l-13.964-38.463h-48.778l-13.957,38.463h-31.364
		L5233.267,1111.816z M5234.863,1193.551h27.945l-13.97-38.469L5234.863,1193.551z"></path>
</g>
<g class="molenaar">
	<polygon fill="#0E4A7D" points="1610.816,296.529 1723.833,296.529 1875.683,555.219 2027.553,296.529 2140.55,296.529
		2140.55,870.409 2034.606,870.409 2034.606,482.822 1875.683,761.816 1716.771,482.822 1716.771,870.409 1610.816,870.409 	"></polygon>
	<path fill="#0E4A7D" d="M2235.924,642.624c0-160.69,83.872-226.904,191.582-226.904c108.6,0,192.484,66.215,192.484,226.904v9.71
		c0,160.678-83.885,226.896-192.484,226.896c-107.71,0-191.582-66.219-191.582-226.896V642.624z M2516.678,642.624
		c0-99.762-33.547-129.782-89.172-129.782s-88.295,30.02-88.295,129.782v9.71c0,99.771,32.67,129.781,88.295,129.781
		s89.172-30.01,89.172-129.781V642.624z"></path>
	<path fill="#0E4A7D" d="M2715.333,252.381h102.416v465.294c0,48.553,22.071,64.439,55.631,64.439
		c21.181,0,41.491-7.047,55.611-17.654l31.794,89.16c-26.493,16.789-62.691,25.61-102.416,25.61
		c-82.118,0-143.036-42.374-143.036-162.451V252.381z"></path>
	<path fill="#0E4A7D" d="M3399.05,687.643h-278.981v4.416c0,54.754,43.245,90.056,108.593,90.056
		c54.729,0,107.703-17.653,137.73-37.081l31.781,90.068c-45.902,28.229-105.949,44.129-169.511,44.129
		c-128.91,0-213.659-66.219-213.659-222.486v-14.121c0-160.688,77.688-226.904,191.569-226.904
		c114.783,0,192.478,66.216,192.478,226.904V687.643z M3120.069,611.721h173.044V607.3c0-63.557-36.21-94.457-86.541-94.457
		c-49.428,0-86.503,30.9-86.503,94.457V611.721z"></path>
	<path fill="#0E4A7D" d="M3496.747,455.453c42.375-23.84,115.659-39.733,188.048-39.733c112.139,0,195.121,70.633,195.121,226.904
		V870.41h-101.532V635.563c0-92.701-39.719-122.721-101.526-122.721c-36.204,0-60.925,5.296-77.708,11.473V870.41h-102.403V455.453z
		"></path>
	<path fill="#0E4A7D" d="M4345.57,843.909c-52.098,26.5-120.089,39.732-190.718,39.732c-97.993,0-192.465-48.539-192.465-154.494
		v-5.287c0-87.412,78.585-135.093,211.015-139.505l69.758-2.659v-15.888c0-40.611-37.964-52.965-96.245-52.965
		c-56.502,0-102.416,14.122-133.314,29.135l-34.443-82.109c49.447-28.255,106.845-44.149,174.823-44.149
		c108.594,0,191.589,42.38,191.589,165.104V843.909z M4243.161,662.038l-69.758,1.773c-69.758,2.637-108.599,21.186-108.599,60.048
		v5.287c0,40.602,40.614,57.391,91.828,57.391c37.958,0,64.439-4.423,86.529-11.471V662.038z"></path>
	<path fill="#0E4A7D" d="M4820.146,843.909c-52.098,26.5-120.077,39.732-190.706,39.732c-98.005,0-192.477-48.539-192.477-154.494
		v-5.287c0-87.412,78.585-135.093,211.015-139.505l69.752-2.659v-15.888c0-40.611-37.971-52.965-96.233-52.965
		c-56.508,0-102.422,14.122-133.326,29.135l-34.431-82.109c49.435-28.255,106.839-44.149,174.811-44.149
		c108.606,0,191.595,42.38,191.595,165.104V843.909z M4717.73,662.038l-69.752,1.773c-69.745,2.637-108.593,21.186-108.593,60.048
		v5.287c0,40.602,40.608,57.391,91.816,57.391c37.964,0,64.458-4.423,86.529-11.471V662.038z"></path>
	<path fill="#0E4A7D" d="M4919.804,455.453c44.148-26.489,113.004-39.733,169.531-39.733c41.478,0,77.689,7.945,108.567,21.186
		l-38.835,93.589c-19.42-11.475-40.615-17.653-69.732-17.653c-31.806,0-52.105,6.178-67.991,11.473V870.41h-101.54V455.453z"></path>
</g>
</svg>
