<?xml version="1.0" encoding="utf-8"?>
<!-- Generator: Adobe Illustrator 14.0.0, SVG Export Plug-In . SVG Version: 6.00 Build 43363)  -->
<!DOCTYPE svg PUBLIC "-//W3C//DTD SVG 1.1//EN" "http://www.w3.org/Graphics/SVG/1.1/DTD/svg11.dtd">
<svg version="1.1" id="Layer_1" xmlns="http://www.w3.org/2000/svg" xmlns:xlink="http://www.w3.org/1999/xlink" x="0px" y="0px"
	 width="595.279px" height="237px" viewBox="0 272.445 595.279 237" enable-background="new 0 272.445 595.279 237"
	 xml:space="preserve">
<g>
	<path fill="#FCB945" d="M70.81,423.412c0,0-0.843,22.221,26.578,25.173c9.985,1.125,7.735,1.971,15.188-0.563
		c0,0-14.485-1.265-24.047-5.905C78.966,437.477,70.81,423.412,70.81,423.412"/>
	<path fill="#FCB945" d="M109.341,292.066c-18.421-17.719-56.532-13.5-58.641,17.156c-0.423,2.813-4.219,2.954-7.313,2.672
		c-8.718-0.984-20.532-1.124-32.063,17.86c-14.204,23.345-3.235,63.142,32.625,54.142c0,0-38.39,1.968-30.516-38.813
		c5.344-27.422,21.094-30.797,29.672-31.36c9.563-0.703,13.782,1.688,14.626-2.813c1.547-13.219,4.218-14.625,2.812-11.39
		c4.781-13.782,19.969-18.142,39.095-5.907c28.829,18.421,12.375,42.469,12.375,42.469S135.78,317.378,109.341,292.066"/>
	<path fill="#FCB945" d="M105.966,341.708c0,0,8.296,0.844,14.767,9.985c1.968,2.812,4.921,11.109,4.921,11.109
		c-3.938,0.423-5.906,3.235-5.906,3.235s-1.687-9.984-3.657-13.078C113.981,349.583,105.966,341.708,105.966,341.708"/>
	<path fill="#FCB945" d="M119.607,365.896c0,0-9.984-1.829-20.109,2.813c-14.203,6.328-31.501,19.125-31.501,19.125
		s8.016-13.22,21.375-22.782c9.563-6.891,29.251-7.312,29.251-7.312L119.607,365.896z"/>
	<path fill="#FCB945" d="M106.53,387.271c0,0,22.921,16.313,16.594,22.357c-8.157,7.734-11.954,3.799-11.954,3.799
		s13.219-3.375,2.672-16.032C108.075,390.646,106.53,387.271,106.53,387.271"/>
	<path fill="#FCB945" d="M88.67,384.036c0,0-6.188,1.688-4.5,7.594c1.547,4.924,6.75,7.312,10.265,5.766
		c2.953-1.266,3.938-6.469,0.422-11.532l-3.516,3.938L88.67,384.036z"/>
	<path fill="#FCB945" d="M115.81,387.412c0,0,2.391-7.453,7.735-9.844c2.954-1.266,9.422,0.984,9.422,0.984l-2.108,4.079
		c0,0-1.829-2.25-7.454-0.703C121.717,382.349,115.81,387.412,115.81,387.412"/>
	<path fill="#FCB945" d="M96.967,414.131c0,0-8.578,11.953,3.937,18.422c12.938,6.751,19.126-4.781,19.126-4.781
		s-8.578,2.25-14.484-0.704C94.857,421.583,96.967,414.131,96.967,414.131"/>
	<path fill="#FCB945" d="M96.544,467.57c-0.702,2.671,1.266-1.97-1.687-0.563c-13.22,5.906-22.642,5.906-22.642,5.906
		s11.392-9.847,18-20.109c1.828-2.953,4.219-4.22,6.609-4.641c-4.921-0.704-10.265,0.563-14.343,6.607
		c-9.563,14.627-18.141,19.126-18.141,19.126s6.046,10.126,24.75,1.266c9.704-4.641,8.015-7.172,8.015-7.172
		S96.825,467.849,96.544,467.57"/>
	<path fill="#FCB945" d="M109.341,453.507c0,0-0.422,0.139-1.266,0.279c1.547,2.813,3.798,9.001,1.126,18.565
		c-3.798,13.92-8.438,17.155-8.438,17.155s0.563-11.813-3.095-23.483c-0.844-2.814-0.844-5.063-0.14-6.893
		c-3.938,3.373-6.75,8.298-4.5,15.61c5.062,16.595,2.953,26.156,2.953,26.156s11.391,1.688,16.735-18.28
		C118.342,462.929,109.341,453.507,109.341,453.507"/>
	<path fill="#FCB945" d="M97.106,445.632c0,0-10.265,1.125-6.749,11.812c3.375,10.688,15.89,4.22,15.89,4.22
		s-6.046,0.703-9.984-6.893C94.435,451.397,97.106,445.632,97.106,445.632"/>
	<path fill="#FCB945" d="M63.637,395.288c0,0-12.656,1.828-10.125,10.688c2.532,8.859,7.734,9.983,7.734,9.983
		s-2.53-5.343-2.812-10.266C58.294,400.632,63.637,395.288,63.637,395.288"/>
	<path fill="#FCB945" d="M140.138,407.804c0,0,5.625,12.795-3.515,29.111c-4.64,8.297-16.875,8.997-16.875,8.997
		s11.531-3.937,15.469-13.217C139.155,423.274,140.138,407.804,140.138,407.804"/>
	<path fill="#FCB945" d="M70.387,440.569c0,0-15.609,2.11-27.421,7.733c-10.688,5.064-19.83,17.722-19.83,17.722
		s21.657-15.189,31.642-17.298c9.985-2.11,22.641-3.235,22.641-3.235L70.387,440.569z"/>
	<path fill="#59200A" d="M170.796,375.036h4.219c10.688,0,16.171,2.813,16.171,12.375c0,11.25-9,13.5-16.171,13.5h-4.219V375.036z
		 M159.546,439.164h11.25v-31.501h4.219c10.969,0,13.078,6.609,14.625,12.654l3.937,18.847h11.392l-3.797-18.422
		c-1.688-8.297-3.234-15.469-13.921-17.156v-0.142c6.045-1.125,15.187-5.203,15.187-16.594c0-16.875-15.609-18.563-27.563-18.563
		h-15.469v70.878H159.546z"/>
	<path fill="none" stroke="#59200A" stroke-width="1.3392" stroke-miterlimit="10" d="M170.796,375.036h4.219
		c10.688,0,16.171,2.813,16.171,12.375c0,11.25-9,13.5-16.171,13.5h-4.219V375.036z M159.546,439.164h11.25v-31.501h4.219
		c10.969,0,13.078,6.609,14.625,12.654l3.937,18.847h11.392l-3.797-18.422c-1.688-8.297-3.234-15.469-13.921-17.156v-0.142
		c6.045-1.125,15.187-5.203,15.187-16.594c0-16.875-15.609-18.563-27.563-18.563h-15.469v70.878H159.546z"/>
	<path fill="#59200A" d="M223.812,414.694c0-8.859,1.126-21.235,10.267-21.235c9.282,0,10.407,12.376,10.407,21.235
		s-1.125,21.235-10.407,21.235C224.938,435.929,223.812,423.553,223.812,414.694 M234.078,440.289
		c14.345,0,21.657-9.002,21.657-25.595c0-16.594-7.313-25.595-21.657-25.595s-21.516,9-21.516,25.595
		C212.422,431.147,219.734,440.289,234.078,440.289"/>
	<path fill="none" stroke="#59200A" stroke-width="1.3392" stroke-miterlimit="10" d="M223.812,414.694
		c0-8.859,1.126-21.235,10.267-21.235c9.282,0,10.407,12.376,10.407,21.235s-1.125,21.235-10.407,21.235
		C224.938,435.929,223.812,423.553,223.812,414.694z M234.078,440.289c14.345,0,21.657-9.002,21.657-25.595
		c0-16.594-7.313-25.595-21.657-25.595s-21.516,9-21.516,25.595C212.422,431.147,219.734,440.289,234.078,440.289z"/>
	<path fill="#59200A" d="M275.142,414.694c0-8.859,1.125-21.235,10.266-21.235c9.282,0,10.406,12.376,10.406,21.235
		s-1.125,21.235-10.406,21.235C276.407,435.929,275.142,423.553,275.142,414.694 M285.407,440.289
		c14.344,0,21.657-9.002,21.657-25.595c0-16.594-7.313-25.595-21.657-25.595s-21.517,9-21.517,25.595
		C263.891,431.147,271.063,440.289,285.407,440.289"/>
	<path fill="none" stroke="#59200A" stroke-width="1.3392" stroke-miterlimit="10" d="M275.142,414.694
		c0-8.859,1.125-21.235,10.266-21.235c9.282,0,10.406,12.376,10.406,21.235s-1.125,21.235-10.406,21.235
		C276.407,435.929,275.142,423.553,275.142,414.694z M285.407,440.289c14.344,0,21.657-9.002,21.657-25.595
		c0-16.594-7.313-25.595-21.657-25.595s-21.517,9-21.517,25.595C263.891,431.147,271.063,440.289,285.407,440.289z"/>
	<path fill="#59200A" d="M326.611,414.694c0-8.58,1.687-19.547,9.845-19.547c8.999,0,9.702,11.109,9.702,19.547
		c0,8.155-1.266,18.985-9.702,18.985C328.158,433.679,326.611,422.849,326.611,414.694 M346.72,439.164h10.406v-70.878H346.72
		v28.689h-0.14c-1.407-2.672-4.36-7.875-12.657-7.875c-12.938,0-18.423,10.829-18.423,25.595c0,14.062,4.361,25.595,18.423,25.595
		c7.876,0,11.25-5.906,12.657-9.142h0.14V439.164z"/>
	<path fill="none" stroke="#59200A" stroke-width="1.3392" stroke-miterlimit="10" d="M326.611,414.694
		c0-8.58,1.687-19.547,9.845-19.547c8.999,0,9.702,11.109,9.702,19.547c0,8.155-1.266,18.985-9.702,18.985
		C328.158,433.679,326.611,422.849,326.611,414.694z M346.72,439.164h10.406v-70.878H346.72v28.689h-0.14
		c-1.407-2.672-4.36-7.875-12.657-7.875c-12.938,0-18.423,10.829-18.423,25.595c0,14.062,4.361,25.595,18.423,25.595
		c7.876,0,11.25-5.906,12.657-9.142h0.14V439.164z"/>
	<path fill="#59200A" d="M379.206,404.427c0.14-2.812,1.688-10.968,9.703-10.968c7.734,0,9,7.173,9,10.968H379.206z
		 M407.191,432.695c-3.094,1.404-6.189,2.109-9.282,2.109c-14.625,0-18.983-16.033-18.983-25.737h29.25
		c0-9.421-2.954-19.968-18.844-19.968c-15.329,0-20.813,9.843-20.813,23.345c0,19.688,10.826,27.702,24.468,27.702
		c6.188,0,9.985-0.982,14.204-2.812V432.695z"/>
	<path fill="none" stroke="#59200A" stroke-width="1.3392" stroke-miterlimit="10" d="M379.206,404.427
		c0.14-2.812,1.688-10.968,9.703-10.968c7.734,0,9,7.173,9,10.968H379.206z M407.191,432.695c-3.094,1.404-6.189,2.109-9.282,2.109
		c-14.625,0-18.983-16.033-18.983-25.737h29.25c0-9.421-2.954-19.968-18.844-19.968c-15.329,0-20.813,9.843-20.813,23.345
		c0,19.688,10.826,27.702,24.468,27.702c6.188,0,9.985-0.982,14.204-2.812V432.695z"/>
	<path fill="#59200A" d="M419.707,390.225h10.406v11.532h0.141c1.687-3.657,6.327-12.797,17.157-12.797
		c8.577,0,12.374,7.171,12.374,14.202v36.002h-10.406v-30.518c0-6.186-0.983-11.671-6.188-11.671
		c-10.265,0-13.078,16.032-13.078,22.08v20.109h-10.406V390.225L419.707,390.225z"/>
	<path fill="none" stroke="#59200A" stroke-width="1.3392" stroke-miterlimit="10" d="M419.707,390.225h10.406v11.532h0.141
		c1.687-3.657,6.327-12.797,17.157-12.797c8.577,0,12.374,7.171,12.374,14.202v36.002h-10.406v-30.518
		c0-6.186-0.983-11.671-6.188-11.671c-10.265,0-13.078,16.032-13.078,22.08v20.109h-10.406V390.225L419.707,390.225z"/>
	<path fill="#59200A" d="M474.833,390.225h10.407v12.374h0.139c3.234-6.61,6.892-12.796,15.751-13.499v10.829
		c-9.984,0.28-16.031,3.657-16.031,16.873v22.362h-10.406v-48.939H474.833z"/>
	<path fill="none" stroke="#59200A" stroke-width="1.3392" stroke-miterlimit="10" d="M474.833,390.225h10.407v12.374h0.139
		c3.234-6.61,6.892-12.796,15.751-13.499v10.829c-9.984,0.28-16.031,3.657-16.031,16.873v22.362h-10.406v-48.939H474.833z"/>
	<path fill="#59200A" d="M511.537,390.225h10.406v48.939h-10.406V390.225z M511.114,368.286h11.249v10.266h-11.249V368.286z"/>
	<path fill="none" stroke="#59200A" stroke-width="1.3392" stroke-miterlimit="10" d="M511.537,390.225h10.406v48.939h-10.406
		V390.225z M511.114,368.286h11.249v10.266h-11.249V368.286z"/>
	<path fill="#59200A" d="M548.943,441.692c0,15.752-8.577,20.534-21.516,20.534c-0.984,0-2.531-0.142-3.234-0.422v-6.609
		c1.547,0.563,3.234,0.984,4.923,0.984c8.718,0,9.281-5.907,9.281-14.346v-51.468h10.405v51.327H548.943z M538.256,368.286h11.25
		v10.266h-11.25V368.286z"/>
	<path fill="none" stroke="#59200A" stroke-width="1.3392" stroke-miterlimit="10" d="M548.943,441.692
		c0,15.752-8.577,20.534-21.516,20.534c-0.984,0-2.531-0.142-3.234-0.422v-6.609c1.547,0.563,3.234,0.984,4.923,0.984
		c8.718,0,9.281-5.907,9.281-14.346v-51.468h10.405v51.327H548.943z M538.256,368.286h11.25v10.266h-11.25V368.286z"/>
	<path fill="#59200A" d="M586.633,399.928c-3.517-2.391-7.454-4.782-12.376-4.782c-3.233,0-7.031,1.407-7.031,5.062
		c0,8.859,22.359,9.704,22.359,25.314c0,10.407-8.155,14.767-18.562,14.767c-6.19,0-10.548-1.268-13.079-2.111v-9.561
		c2.953,2.107,7.734,5.203,13.5,5.203c5.906,0,8.438-3.096,8.438-6.189c0-8.576-22.078-10.405-22.078-24.328
		c0-7.452,4.922-14.063,17.155-14.063c5.204,0,9.704,1.406,11.532,1.969v8.72H586.633z"/>
	<path fill="none" stroke="#59200A" stroke-width="1.3392" stroke-miterlimit="10" d="M586.633,399.928
		c-3.517-2.391-7.454-4.782-12.376-4.782c-3.233,0-7.031,1.407-7.031,5.062c0,8.859,22.359,9.704,22.359,25.314
		c0,10.407-8.155,14.767-18.562,14.767c-6.19,0-10.548-1.268-13.079-2.111v-9.561c2.953,2.107,7.734,5.203,13.5,5.203
		c5.906,0,8.438-3.096,8.438-6.189c0-8.576-22.078-10.405-22.078-24.328c0-7.452,4.922-14.063,17.155-14.063
		c5.204,0,9.704,1.406,11.532,1.969v8.72H586.633z"/>
	<polygon fill="#FCB945" points="384.69,336.926 384.69,343.254 388.909,343.254 388.909,336.926 391.721,336.926 391.721,353.239 
		388.909,353.239 388.909,345.224 384.69,345.224 384.69,353.239 381.878,353.239 381.878,336.926 	"/>
	<path fill="#FCB945" d="M408.597,345.083c0,2.954,0,8.297-5.485,8.297c-5.344,0-5.484-5.344-5.484-8.297
		c0-2.952,0-8.296,5.484-8.296C408.456,336.786,408.597,342.13,408.597,345.083 M400.582,345.083c0,3.375,0.281,6.328,2.53,6.328
		c2.25,0,2.532-2.813,2.532-6.328c0-3.375-0.282-6.329-2.532-6.329C400.863,338.754,400.582,341.567,400.582,345.083"/>
	<polygon fill="#FCB945" points="422.096,336.926 422.096,338.896 417.315,338.896 417.315,343.958 421.676,343.958 
		421.676,345.786 417.315,345.786 417.315,353.239 414.504,353.239 414.504,336.926 	"/>
	<polygon fill="#FCB945" points="429.972,336.926 429.972,351.271 434.613,351.271 434.613,353.239 427.159,353.239 
		427.159,336.926 	"/>
	<polygon fill="#FCB945" points="446.988,336.926 446.988,338.896 442.346,338.896 442.346,343.958 446.566,343.958 
		446.566,345.786 442.346,345.786 442.346,351.271 446.988,351.271 446.988,353.239 439.535,353.239 439.535,336.926 	"/>
	<polygon fill="#FCB945" points="453.597,336.926 455.988,349.161 455.988,349.161 456.13,348.176 457.255,342.693 458.52,336.926 
		461.193,336.926 457.112,353.239 454.864,353.239 450.786,336.926 	"/>
	<polygon fill="#FCB945" points="473.708,336.926 473.708,338.896 468.926,338.896 468.926,343.958 473.145,343.958 
		473.145,345.786 468.926,345.786 468.926,351.271 473.708,351.271 473.708,353.239 466.254,353.239 466.254,336.926 	"/>
	<path fill="#FCB945" d="M479.051,336.926h3.376c1.969,0,5.203,0.141,5.203,4.219c0,1.548-0.563,3.797-2.953,4.219l3.937,7.875
		h-2.952l-3.797-7.875l0,0v7.875h-2.813V336.926L479.051,336.926z M484.536,341.567c0-1.547-0.282-2.813-2.391-2.813h-0.422v5.344
		C483.833,344.239,484.536,343.254,484.536,341.567"/>
	<path fill="#FCB945" d="M498.88,336.926l4.5,16.173h-2.813l-0.843-3.235h-4.22l-0.843,3.235h-2.672l4.5-16.173H498.88z
		 M498.74,346.067l-1.125-5.907l0,0l-1.688,8.297h3.374L498.74,346.067z"/>
	<polygon fill="#FCB945" points="510.693,341.708 511.114,347.192 511.114,353.239 508.303,353.239 508.303,336.926 
		510.974,336.926 515.896,349.301 515.896,349.301 515.334,342.693 515.334,336.926 518.005,336.926 518.005,353.239 
		515.474,353.239 510.552,340.723 510.552,340.723 	"/>
	<path fill="#FCB945" d="M532.631,339.177c-0.563-0.281-1.125-0.423-1.829-0.423c-3.937,0-3.937,4.36-3.937,6.47
		s0.28,6.187,4.078,6.187c0.563,0,1.125-0.14,1.688-0.281v1.828c-0.704,0.281-1.405,0.422-2.251,0.422
		c-5.624,0-6.468-4.641-6.468-8.016c0-3.233,0.562-8.578,6.188-8.578c0.983,0,1.546,0.14,2.39,0.421v1.969H532.631z"/>
	<rect x="537.974" y="336.926" fill="#FCB945" width="2.812" height="16.173"/>
	<polygon fill="#FCB945" points="554.709,336.926 554.709,338.896 550.067,338.896 550.067,343.958 554.288,343.958 
		554.288,345.786 550.067,345.786 550.067,351.271 554.709,351.271 554.709,353.239 547.256,353.239 547.256,336.926 	"/>
	<path fill="#FCB945" d="M560.054,336.926h3.373c1.97,0,5.204,0.141,5.204,4.219c0,1.548-0.563,3.797-2.953,4.219l3.796,7.875
		h-2.952l-3.797-7.875l0,0v7.875h-2.813v-16.313H560.054z M565.678,341.567c0-1.547-0.281-2.813-2.391-2.813h-0.423v5.344
		C564.975,344.239,565.678,343.254,565.678,341.567"/>
	<polygon fill="#59200A" points="149.702,336.926 152.655,348.598 152.655,348.598 152.796,348.036 153.639,344.098 
		155.468,336.926 157.859,336.926 159.827,353.239 157.014,353.239 156.593,347.192 156.451,344.098 156.311,341.989 
		156.311,341.989 155.749,344.379 153.639,353.239 151.67,353.239 148.998,341.989 148.998,341.989 148.155,353.239 
		145.482,353.239 147.311,336.926 	"/>
	<polygon fill="#59200A" points="174.171,336.926 174.171,338.896 169.39,338.896 169.39,343.958 173.609,343.958 173.609,345.786 
		169.39,345.786 169.39,351.271 174.171,351.271 174.171,353.239 166.576,353.239 166.576,336.926 	"/>
	<polygon fill="#59200A" points="188.233,336.926 188.233,338.896 183.452,338.896 183.452,343.958 187.671,343.958 
		187.671,345.786 183.452,345.786 183.452,351.271 188.233,351.271 188.233,353.239 180.78,353.239 180.78,336.926 	"/>
	<path fill="#59200A" d="M201.312,339.458c-0.703-0.423-1.406-0.704-2.391-0.704c-1.547,0-2.53,0.985-2.53,2.11
		c0,0.704,0.281,1.267,0.843,1.829l2.109,1.827c1.829,1.547,2.954,2.532,2.954,4.781c0,2.25-1.828,4.219-4.922,4.219
		c-1.125,0-2.25-0.281-3.093-0.702v-2.11c0.843,0.422,1.687,0.844,2.812,0.844c1.688,0,2.39-1.125,2.39-2.25
		c0-3.234-5.906-3.938-5.906-8.156c0-2.25,1.547-4.078,4.641-4.078c1.125,0,2.11,0.14,2.954,0.562L201.312,339.458z"/>
	<polygon fill="#59200A" points="216.499,336.926 216.499,338.896 213.406,338.896 213.406,353.239 210.594,353.239 
		210.594,338.896 207.36,338.896 207.36,336.926 	"/>
	<polygon fill="#59200A" points="230.14,336.926 230.14,338.896 225.359,338.896 225.359,343.958 229.579,343.958 229.579,345.786 
		225.359,345.786 225.359,351.271 230.14,351.271 230.14,353.239 222.548,353.239 222.548,336.926 	"/>
	<path fill="#59200A" d="M236.75,336.926h3.375c1.97,0,5.204,0.141,5.204,4.219c0,1.548-0.563,3.797-2.953,4.219l3.938,7.875h-2.953
		l-3.798-7.875l0,0v7.875h-2.812V336.926L236.75,336.926z M242.376,341.567c0-1.547-0.281-2.813-2.391-2.813h-0.423v5.344
		C241.532,344.239,242.376,343.254,242.376,341.567"/>
	<path fill="#59200A" d="M252.782,353.239v-16.172h3.516c3.797,0,4.781,1.546,4.781,4.359c0,1.546-0.422,3.094-2.672,3.656l0,0
		c2.391,0.563,2.953,1.97,2.953,3.797c0,2.953-1.406,4.5-5.343,4.5h-3.235V353.239z M255.875,338.754h-0.421v5.344
		c2.53,0.141,2.953-1.125,2.953-2.813C258.407,339.879,257.845,338.754,255.875,338.754 M255.454,351.411
		c2.391,0.141,3.093-0.843,3.093-2.672c0-1.828-0.421-2.953-3.093-2.813V351.411z"/>
	<path fill="#59200A" d="M274.016,336.926l4.5,16.173h-2.812l-0.845-3.235h-4.217l-0.844,3.235h-2.672l4.5-16.173H274.016z
		 M274.016,346.067l-0.984-5.907l0,0l-1.688,8.297h3.375L274.016,346.067z"/>
	<polygon fill="#59200A" points="287.657,336.926 287.657,344.801 291.595,336.926 294.408,336.926 290.329,344.801 
		294.829,353.239 291.595,353.239 287.657,344.942 287.657,353.239 284.845,353.239 284.845,336.926 	"/>
	<polygon fill="#59200A" points="303.97,336.926 303.97,344.801 307.766,336.926 310.719,336.926 306.641,344.801 311.001,353.239 
		307.766,353.239 303.97,344.942 303.97,353.239 301.016,353.239 301.016,336.926 	"/>
	<polygon fill="#59200A" points="324.783,336.926 324.783,338.896 320.143,338.896 320.143,343.958 324.36,343.958 324.36,345.786 
		320.143,345.786 320.143,351.271 324.783,351.271 324.783,353.239 317.329,353.239 317.329,336.926 	"/>
	<path fill="#59200A" d="M331.392,336.926h3.375c1.969,0,5.203,0.141,5.203,4.219c0,1.548-0.563,3.797-2.953,4.219l3.938,7.875
		h-2.955l-3.796-7.875l0,0v7.875h-2.813V336.926L331.392,336.926z M337.017,341.567c0-1.547-0.281-2.813-2.391-2.813h-0.422v5.344
		C336.314,344.239,337.017,343.254,337.017,341.567"/>
	<path fill="#59200A" d="M351.221,339.598c0-4.078,3.234-7.313,7.312-7.313c4.079,0,7.314,3.235,7.314,7.313
		s-3.235,7.313-7.314,7.313C354.456,346.911,351.221,343.676,351.221,339.598 M352.346,339.598c0,3.516,2.812,6.188,6.187,6.188
		c3.376,0,6.188-2.672,6.188-6.188s-2.813-6.188-6.188-6.188C355.158,333.41,352.346,336.083,352.346,339.598 M361.909,343.817
		h-1.406l-2.109-3.796h-1.548v3.796h-1.125v-8.297h3.517c1.546,0,2.813,0.422,2.813,2.25c0,1.547-1.126,2.251-2.25,2.251
		L361.909,343.817z M356.988,336.646v2.108h1.264c1.125,0,2.672,0.142,2.672-0.984c0-0.983-0.843-1.124-1.829-1.124H356.988z"/>
</g>
</svg>
